#N canvas 656 34 554 444 10;
#X obj 127 240 gemhead;
#X obj 127 267 pix_image simon.jpg;
#X obj 130 140 bng 15 250 50 0 save empty empty 17 7 0 10 -262144 -1
-1;
#X obj 130 95 gemwin;
#X msg 306 78 destroy;
#X text 149 139 Save position;
#X obj 272 241 gemhead;
#X obj 272 268 pix_image simon-1.jpg;
#X obj 127 295 4corners 1;
#X obj 272 295 4corners 2;
#X obj 130 41 loadbang;
#X msg 130 68 dimen 640 480 \, create \, 1;
#N canvas 0 0 340 192 infos 0;
#X text 17 103 http://www.labomedia.net;
#X text 17 18 http://www.yamatierea.org/papatchs;
#X text 17 91 Pour le Labomedia.;
#X text 17 6 Tisse par Olivier Baudu.;
#X text 18 130 Avec l'aide precieuse de Benjamin Cadon.;
#X text 18 158 18/04/11;
#X text 17 49 Sur la base d'un patch de Kubriel;
#X text 16 62 kubriel@gmail.com;
#X restore 130 372 pd infos;
#X connect 0 0 1 0;
#X connect 1 0 8 0;
#X connect 4 0 3 0;
#X connect 6 0 7 0;
#X connect 7 0 9 0;
#X connect 10 0 11 0;
#X connect 11 0 3 0;
