#N canvas 0 25 1343 653 10;
#X obj 996 402 cnv 15 100 150 empty empty empty 20 12 0 14 -258113
-66577 0;
#N canvas 698 287 556 429 comparing 0;
#X obj 97 39 inlet;
#X obj 182 482 outlet;
#X floatatom 66 180 5 0 0 0 - - -;
#X obj 100 66 t l l;
#X obj 200 287 change;
#X obj 233 310 change;
#X obj 265 336 change;
#X obj 297 355 change;
#X obj 198 318 tgl 15 0 empty empty empty 17 7 0 10 -262144 -1 -1 0
1;
#X obj 231 343 tgl 15 0 empty empty empty 17 7 0 10 -262144 -1 -1 0
1;
#X obj 274 367 tgl 15 0 empty empty empty 17 7 0 10 -262144 -1 -1 0
1;
#X obj 305 387 tgl 15 0 empty empty empty 17 7 0 10 -262144 -1 -1 0
1;
#X obj 207 377 t b f;
#X obj 227 399 t b f;
#X obj 251 400 t b f;
#X obj 101 132 minmax;
#X obj 202 129 moses 1;
#X obj 237 152 moses 1;
#X obj 271 174 moses 1;
#X obj 300 197 moses 1;
#X obj 372 47 loadbang;
#X msg 364 75 0.4;
#X obj 340 224 moses 1;
#X obj 203 105 unpack f f f f f;
#X obj 341 382 change;
#X obj 349 414 tgl 15 0 empty empty empty 17 7 0 10 -262144 -1 -1 0
1;
#X obj 184 451 pack f f f f f;
#X obj 300 411 t b f;
#X obj 213 38 r reset;
#X obj 199 258 == 1;
#X obj 229 258 == 1;
#X obj 259 256 == 1;
#X obj 290 260 == 1;
#X obj 330 261 == 1;
#X connect 0 0 3 0;
#X connect 3 0 15 0;
#X connect 3 1 23 0;
#X connect 4 0 8 0;
#X connect 4 0 26 0;
#X connect 5 0 9 0;
#X connect 5 0 12 0;
#X connect 6 0 10 0;
#X connect 6 0 13 0;
#X connect 7 0 11 0;
#X connect 7 0 14 0;
#X connect 12 0 26 0;
#X connect 12 1 26 1;
#X connect 13 0 26 0;
#X connect 13 1 26 2;
#X connect 14 0 26 0;
#X connect 14 1 26 3;
#X connect 15 0 2 0;
#X connect 15 0 29 0;
#X connect 15 0 30 0;
#X connect 15 0 31 0;
#X connect 15 0 32 0;
#X connect 15 0 33 0;
#X connect 16 0 29 1;
#X connect 17 0 30 1;
#X connect 18 0 31 1;
#X connect 19 0 32 1;
#X connect 20 0 21 0;
#X connect 21 0 16 1;
#X connect 21 0 17 1;
#X connect 21 0 18 1;
#X connect 21 0 19 1;
#X connect 21 0 22 1;
#X connect 22 0 33 1;
#X connect 23 0 16 0;
#X connect 23 1 17 0;
#X connect 23 2 18 0;
#X connect 23 3 19 0;
#X connect 23 4 22 0;
#X connect 24 0 25 0;
#X connect 24 0 27 0;
#X connect 26 0 1 0;
#X connect 27 0 26 0;
#X connect 27 1 26 4;
#X connect 29 0 4 0;
#X connect 30 0 5 0;
#X connect 31 0 6 0;
#X connect 32 0 7 0;
#X connect 33 0 24 0;
#X restore 283 -199 pd comparing;
#X obj 1105 181 polygon 4;
#X obj 426 -154 tgl 15 0 empty empty empty 17 7 0 10 -262144 -1 -1
0 1;
#X obj 443 -154 tgl 15 0 empty empty empty 17 7 0 10 -262144 -1 -1
0 1;
#X obj 460 -154 tgl 15 0 empty empty empty 17 7 0 10 -262144 -1 -1
0 1;
#X obj 477 -154 tgl 15 0 empty empty empty 17 7 0 10 -262144 -1 -1
0 1;
#X msg 1019 164 draw line;
#X obj 1019 137 loadbang;
#X obj 1008 495 curve3d 1 1;
#X msg 833 357 set 1 1 \$1 \$2 \$3;
#X msg 860 330 set 1 0 \$1 \$2 \$3;
#X obj 1105 36 gemhead 6;
#X msg 778 411 set 0 0 \$1 \$2 \$3;
#X msg 807 384 set 0 1 \$1 \$2 \$3;
#X obj 1008 468 pix_texture;
#X obj 1008 441 inlet;
#X obj 76 -20 f;
#X obj 133 -22 f;
#X obj 61 9 -;
#X obj 118 11 -;
#X obj 283 -171 unpack f f f f f;
#X obj 61 317 pack f f f f f;
#X obj 61 246 t b f;
#X obj 494 -154 tgl 15 0 empty empty empty 17 7 0 10 -262144 -1 -1
0 1;
#X obj 129 416 sel 1;
#X obj 179 550 s select;
#X obj 460 -369 sel \$0;
#X obj 460 -394 r select;
#X obj 460 -284 s \$0-sel;
#X obj 631 -393 r \$0-sel;
#X msg 493 -334 0;
#X msg 460 -333 1;
#X obj 179 483 spigot 0;
#X obj 713 -294 f;
#X obj 736 -334 sel 1;
#X obj 541 -351 r reset;
#X obj 631 -359 tgl 15 0 empty empty empty 17 7 0 10 -262144 -1 -1
0 1;
#X obj 224 87 < 0.3;
#X obj 1105 -88 r \$0-sel;
#X obj 1105 9 f;
#X obj 1124 -58 r vertex_switch;
#X obj 1124 -27 sel 1;
#N canvas 722 68 450 577 stred 0;
#X obj -186 -313 armoire/stred_bodov;
#X obj -125 -249 armoire/stred_bodov;
#X obj -186 -182 armoire/stred_bodov;
#X obj -186 -136 unpack f f;
#X obj -209 -85 translateXYZ;
#X msg -188 -33 draw line;
#X obj -209 5 circle 0.08;
#X obj -186 -54 loadbang;
#X obj -310 -102 gemhead 20;
#X obj -310 -244 inlet;
#X obj 43 -164 outlet;
#X obj -186 -436 r \$0-BG;
#X obj -125 -436 r \$0-HG;
#X obj -75 -436 r \$0-HD;
#X obj -14 -436 r \$0-BD;
#X connect 0 0 2 0;
#X connect 1 0 2 1;
#X connect 2 0 3 0;
#X connect 2 0 10 0;
#X connect 3 0 4 1;
#X connect 3 1 4 2;
#X connect 4 0 6 0;
#X connect 5 0 6 0;
#X connect 7 0 5 0;
#X connect 8 0 4 0;
#X connect 9 0 8 0;
#X connect 11 0 0 0;
#X connect 12 0 1 0;
#X connect 13 0 0 1;
#X connect 14 0 1 1;
#X restore 212 -210 pd stred;
#N canvas 509 179 593 461 graphique_center 0;
#X obj -428 -292 inlet;
#X obj -428 -270 unpack f f;
#X obj -96 -224 inlet;
#X obj -193 -191 translateXYZ;
#X obj -243 -285 r vertex_switch;
#X obj -193 -94 circle 0.03;
#X obj -243 35 translateXYZ;
#X obj -243 98 circle 0.08;
#X obj -96 -188 sel 0 1;
#X msg -96 -145 0.03;
#X msg -77 -111 0.045;
#X obj -137 -16 r \$0-sel;
#X obj -137 11 sel 0 1;
#X msg -118 81 0.1;
#X msg -137 38 0.07;
#X obj -193 -218 gemhead 100;
#X obj -243 6 color 1 0 0;
#X obj -243 -29 gemhead 100;
#X obj -193 -148 color 1 0 0;
#X connect 0 0 1 0;
#X connect 1 0 3 1;
#X connect 1 0 6 1;
#X connect 1 1 3 2;
#X connect 1 1 6 2;
#X connect 2 0 8 0;
#X connect 3 0 18 0;
#X connect 4 0 15 0;
#X connect 4 0 17 0;
#X connect 6 0 7 0;
#X connect 8 0 9 0;
#X connect 8 1 10 0;
#X connect 9 0 5 1;
#X connect 10 0 5 1;
#X connect 11 0 12 0;
#X connect 12 0 14 0;
#X connect 12 1 13 0;
#X connect 13 0 7 1;
#X connect 14 0 7 1;
#X connect 15 0 3 0;
#X connect 16 0 6 0;
#X connect 17 0 16 0;
#X connect 18 0 5 0;
#X restore 212 5 pd graphique_center;
#X obj 76 -57 unpack f f;
#X obj 763 -227 f;
#X obj 253 530 &&;
#X obj 61 -147 r gmouse;
#X obj 61 -86 unpack f f;
#X obj 61 -118 route position;
#X obj 129 368 r gmouse;
#N canvas 454 177 450 300 relativer 0;
#X obj 223 177 f;
#X obj 195 252 -;
#X obj 271 176 f;
#X obj 250 247 -;
#X obj 199 134 unpack f f;
#X obj 148 21 r gmouse;
#X obj 148 43 route position b1;
#X obj 324 37 inlet;
#X obj 324 68 sel 1;
#X obj 310 105 t b b;
#X obj 205 283 pack f f;
#X obj 206 326 outlet;
#X obj 145 211 spigot 0;
#X obj 249 217 spigot 0;
#X connect 0 0 1 1;
#X connect 1 0 10 0;
#X connect 2 0 3 1;
#X connect 3 0 10 1;
#X connect 4 0 0 1;
#X connect 4 0 12 0;
#X connect 4 1 2 1;
#X connect 4 1 13 0;
#X connect 5 0 6 0;
#X connect 6 0 4 0;
#X connect 7 0 8 0;
#X connect 7 0 12 1;
#X connect 7 0 13 1;
#X connect 8 0 9 0;
#X connect 8 0 11 0;
#X connect 9 0 0 0;
#X connect 9 1 2 0;
#X connect 10 0 11 0;
#X connect 12 0 1 0;
#X connect 13 0 3 0;
#X restore 519 547 pd relativer;
#X obj 713 -402 r select_none;
#X msg 713 -380 0;
#X obj 736 -356 r vertex_switch;
#X obj 370 18 r \$0-init-X-BG;
#X obj 400 -9 r \$0-init-Y-BG;
#X obj 504 12 r \$0-init-X-HG;
#X obj 534 -15 r \$0-init-Y-HG;
#X obj 648 13 r \$0-init-X-HD;
#X obj 678 -14 r \$0-init-Y-HD;
#X obj 792 19 r \$0-init-X-BD;
#X obj 822 -8 r \$0-init-Y-BD;
#X obj 62 -186 s vertex_switch;
#X obj 62 -207 tgl 15 0 empty empty empty 17 7 0 10 -262144 -1 -1 0
1;
#N canvas 550 203 677 502 mousposition 0;
#X obj 493 290 translateXYZ;
#X obj 429 63 s cur_pos_x;
#X obj 535 64 s cur_pos_y;
#X obj 492 313 circle 0.04;
#X obj 375 274 circle 0.08;
#X obj 376 211 color 0 0 1;
#X obj 372 246 translateXYZ;
#X obj 389 186 gemhead 30;
#X obj 505 239 gemhead 31;
#X obj 508 262 color 0 0 0;
#X obj 46 170 t b;
#X obj 37 344 change;
#X msg 36 321 1;
#X msg 70 321 0;
#X obj 39 420 s gemwin;
#X msg 35 385 cursor \$1;
#X obj 55 298 delay 3000;
#X obj 134 373 outlet;
#X obj 269 -10 gemmouse 1 1;
#X obj 220 66 pack f f;
#X obj 200 150 list append;
#X obj 219 97 t b l;
#X msg 199 127 position;
#X obj 307 150 list append;
#X msg 306 127 b1;
#X obj 321 65 t b f;
#X obj 287 13 expr ($f1*-2+1)*4;
#X obj 221 36 expr ($f1*2-1)*5.33;
#X obj 243 190 route list;
#X obj 243 433 s gmouse;
#X text 251 401 video_ext is dependent of this in case you want to
control cursor in different way;
#X connect 0 0 3 0;
#X connect 5 0 6 0;
#X connect 6 0 4 0;
#X connect 7 0 5 0;
#X connect 8 0 9 0;
#X connect 9 0 0 0;
#X connect 10 0 12 0;
#X connect 10 0 16 0;
#X connect 11 0 8 0;
#X connect 11 0 7 0;
#X connect 11 0 15 0;
#X connect 11 0 17 0;
#X connect 12 0 11 0;
#X connect 13 0 11 0;
#X connect 15 0 14 0;
#X connect 16 0 13 0;
#X connect 18 0 27 0;
#X connect 18 1 26 0;
#X connect 18 2 25 0;
#X connect 19 0 21 0;
#X connect 20 0 28 0;
#X connect 21 0 22 0;
#X connect 21 0 10 0;
#X connect 21 1 20 1;
#X connect 22 0 20 0;
#X connect 23 0 28 0;
#X connect 24 0 23 0;
#X connect 25 0 24 0;
#X connect 25 1 23 1;
#X connect 26 0 19 1;
#X connect 26 0 2 0;
#X connect 26 0 6 2;
#X connect 26 0 0 2;
#X connect 27 0 19 0;
#X connect 27 0 1 0;
#X connect 27 0 6 1;
#X connect 27 0 0 1;
#X connect 28 0 29 0;
#X restore 62 -229 pd mousposition;
#X text 80 -207 display help points;
#X obj 283 78 armoire/vertex \$1 \$2;
#X obj 417 78 armoire/vertex \$3 \$4;
#X obj 561 78 armoire/vertex \$5 \$6;
#X obj 705 78 armoire/vertex \$7 \$8;
#X obj 61 70 armoire/pytagoras;
#X obj 400 165 s \$0-BG;
#X obj 534 165 s \$0-HG;
#X obj 678 165 s \$0-HD;
#X obj 822 164 s \$0-BD;
#N canvas 0 25 680 465 save 0;
#X obj 156 51 unpack f f;
#X obj 278 51 unpack f f;
#X obj 409 52 unpack f f;
#X obj 537 52 unpack f f;
#X obj 213 99 t b f;
#X obj 278 99 t b f;
#X obj 335 99 t b f;
#X obj 135 376 t b l;
#X obj 174 376 loadbang;
#X obj 135 346 list;
#N canvas 297 25 893 617 save 0;
#X msg 42 214 write \$1;
#X msg 342 162 read \$1;
#X obj 290 231 coll;
#C restore;
#N canvas 289 235 339 244 stokage 0;
#X obj 115 140 list append;
#X obj 115 180 outlet;
#X obj 115 33 inlet;
#X obj 178 33 inlet;
#X obj 115 93 1;
#X connect 0 0 1 0;
#X connect 2 0 4 0;
#X connect 3 0 0 1;
#X connect 4 0 0 0;
#X restore 119 43 pd stokage;
#X obj 42 -51 inlet;
#X obj 176 15 inlet;
#X obj 42 -24 t b b;
#X obj 290 -41 inlet;
#X obj 42 170 makesymbol position/pos-%s.txt;
#X obj 342 121 makesymbol position/pos-%s.txt;
#X obj 290 33 \$1;
#X obj 42 65 \$1;
#X obj 290 71 t b f b;
#X obj 584 343 t b b;
#X obj 290 266 unpack f f f f f f f f;
#X obj 308 498 s \$0-init-Y-BG;
#X obj 290 525 s \$0-init-X-BG;
#X obj 326 471 s \$0-init-X-HG;
#X obj 345 444 s \$0-init-Y-HG;
#X obj 400 368 s \$0-init-X-BD;
#X obj 419 341 s \$0-init-Y-BD;
#X obj 363 420 s \$0-init-X-HD;
#X obj 382 393 s \$0-init-Y-HD;
#X msg 584 388 2;
#X msg 611 365 -2;
#X connect 0 0 2 0;
#X connect 1 0 2 0;
#X connect 2 0 14 0;
#X connect 3 0 2 0;
#X connect 4 0 6 0;
#X connect 5 0 3 1;
#X connect 6 0 11 0;
#X connect 6 1 3 0;
#X connect 7 0 10 0;
#X connect 8 0 0 0;
#X connect 9 0 1 0;
#X connect 10 0 12 0;
#X connect 11 0 8 0;
#X connect 12 0 2 0;
#X connect 12 1 9 0;
#X connect 12 2 13 0;
#X connect 13 0 23 0;
#X connect 13 1 24 0;
#X connect 14 0 16 0;
#X connect 14 1 15 0;
#X connect 14 2 17 0;
#X connect 14 3 18 0;
#X connect 14 4 21 0;
#X connect 14 5 22 0;
#X connect 14 6 19 0;
#X connect 14 7 20 0;
#X connect 23 0 18 0;
#X connect 23 0 21 0;
#X connect 23 0 22 0;
#X connect 23 0 19 0;
#X connect 24 0 16 0;
#X connect 24 0 15 0;
#X connect 24 0 17 0;
#X connect 24 0 20 0;
#X restore 135 401 pd save;
#X obj 25 329 r save;
#X obj 246 384 r reset;
#X obj 409 99 t b f;
#X obj 466 99 t b f;
#X obj 537 99 t b f;
#X obj 594 99 t b f;
#X obj 156 295 pack f f f f f f f f;
#X obj 156 24 r \$0-BG;
#X obj 278 24 r \$0-HG;
#X obj 409 25 r \$0-HD;
#X obj 537 25 r \$0-BD;
#X connect 0 0 17 0;
#X connect 0 1 4 0;
#X connect 1 0 5 0;
#X connect 1 1 6 0;
#X connect 2 0 13 0;
#X connect 2 1 14 0;
#X connect 3 0 15 0;
#X connect 3 1 16 0;
#X connect 4 0 17 0;
#X connect 4 1 17 1;
#X connect 5 0 17 0;
#X connect 5 1 17 2;
#X connect 6 0 17 0;
#X connect 6 1 17 3;
#X connect 7 0 10 0;
#X connect 7 1 10 1;
#X connect 8 0 10 2;
#X connect 9 0 7 0;
#X connect 11 0 9 0;
#X connect 12 0 10 2;
#X connect 13 0 17 0;
#X connect 13 1 17 4;
#X connect 14 0 17 0;
#X connect 14 1 17 5;
#X connect 15 0 17 0;
#X connect 15 1 17 6;
#X connect 16 0 17 0;
#X connect 16 1 17 7;
#X connect 17 0 9 1;
#X connect 18 0 0 0;
#X connect 19 0 1 0;
#X connect 20 0 2 0;
#X connect 21 0 3 0;
#X restore 74 -347 pd save;
#X obj 778 222 r \$0-BG;
#X obj 807 249 r \$0-HG;
#X obj 833 276 r \$0-HD;
#X obj 860 303 r \$0-BD;
#X obj 1117 73 r \$0-BG;
#X obj 1130 100 r \$0-HG;
#X obj 1143 127 r \$0-HD;
#X obj 1156 154 r \$0-BD;
#X obj 129 389 route b1;
#X obj 179 517 \$0;
#X connect 1 0 21 0;
#X connect 7 0 2 0;
#X connect 8 0 7 0;
#X connect 10 0 9 0;
#X connect 11 0 9 0;
#X connect 12 0 2 0;
#X connect 13 0 9 0;
#X connect 14 0 9 0;
#X connect 15 0 9 0;
#X connect 16 0 15 0;
#X connect 17 0 19 1;
#X connect 18 0 20 1;
#X connect 19 0 72 0;
#X connect 20 0 72 1;
#X connect 21 0 3 0;
#X connect 21 0 68 0;
#X connect 21 1 4 0;
#X connect 21 1 69 0;
#X connect 21 2 5 0;
#X connect 21 2 70 0;
#X connect 21 3 6 0;
#X connect 21 3 71 0;
#X connect 21 4 24 0;
#X connect 22 0 1 0;
#X connect 23 0 22 0;
#X connect 23 1 22 4;
#X connect 25 0 33 0;
#X connect 27 0 32 0;
#X connect 27 1 31 0;
#X connect 28 0 27 0;
#X connect 30 0 34 0;
#X connect 30 0 37 0;
#X connect 31 0 29 0;
#X connect 32 0 29 0;
#X connect 33 0 87 0;
#X connect 34 0 46 0;
#X connect 35 0 34 0;
#X connect 35 1 46 0;
#X connect 36 0 31 0;
#X connect 38 0 33 1;
#X connect 38 0 44 1;
#X connect 38 0 47 1;
#X connect 39 0 40 0;
#X connect 40 0 12 0;
#X connect 41 0 42 0;
#X connect 42 0 40 0;
#X connect 42 1 12 0;
#X connect 43 0 44 0;
#X connect 43 0 45 0;
#X connect 45 0 17 0;
#X connect 45 1 18 0;
#X connect 46 0 68 2;
#X connect 46 0 69 2;
#X connect 46 0 70 2;
#X connect 46 0 71 2;
#X connect 46 0 43 0;
#X connect 47 0 52 0;
#X connect 48 0 50 0;
#X connect 49 0 19 0;
#X connect 49 1 20 0;
#X connect 50 0 49 0;
#X connect 51 0 86 0;
#X connect 52 0 68 1;
#X connect 52 0 69 1;
#X connect 52 0 70 1;
#X connect 52 0 71 1;
#X connect 53 0 54 0;
#X connect 54 0 34 0;
#X connect 55 0 35 0;
#X connect 56 0 68 3;
#X connect 57 0 68 4;
#X connect 58 0 69 3;
#X connect 59 0 69 4;
#X connect 60 0 70 3;
#X connect 61 0 70 4;
#X connect 62 0 71 3;
#X connect 63 0 71 4;
#X connect 65 0 64 0;
#X connect 66 0 65 0;
#X connect 68 0 22 0;
#X connect 68 1 73 0;
#X connect 69 0 22 1;
#X connect 69 1 74 0;
#X connect 70 0 22 2;
#X connect 70 1 75 0;
#X connect 71 0 22 3;
#X connect 71 1 76 0;
#X connect 72 0 23 0;
#X connect 72 0 38 0;
#X connect 78 0 13 0;
#X connect 79 0 14 0;
#X connect 80 0 10 0;
#X connect 81 0 11 0;
#X connect 82 0 2 1;
#X connect 83 0 2 2;
#X connect 84 0 2 3;
#X connect 85 0 2 4;
#X connect 86 0 25 0;
#X connect 86 0 47 0;
#X connect 87 0 26 0;
#X coords 0 0 1 1 350 70 0;
