#N canvas 116 253 732 521 10;
#X obj -140 98 delread~ delay1;
#X obj -257 336 +~;
#X obj -286 36 inlet~;
#X obj 267 48 inlet;
#X obj -258 357 outlet~;
#X obj -155 226 *~;
#X text -296 17 audio in;
#X text 257 24 delay time;
#X obj -48 44 inlet;
#X text 8 18 delay feedback;
#X obj -107 224 *~;
#X obj 35 48 inlet;
#X obj 19 323 +~;
#X obj 19 342 outlet~;
#X obj -14 183 delread~ delay2;
#X obj 62 221 *~;
#X obj -42 119 delay~ 500;
#X text -77 15 delay volume;
#X msg 380 363 20;
#X msg 236 362 2500;
#X msg 272 364 1000;
#X msg 308 365 400;
#X msg 340 363 100;
#X obj -285 155 delwrite~ delay1 2500;
#X obj -41 139 delwrite~ delay2 2500;
#X obj 247 319 route 0 1 2 3 4;
#X obj 101 103 cnv 15 140 94 empty empty Delay_Stéréo 20 12 0 14
-261682 -66577 0;
#X obj 114 149 hsl 90 15 0 0.98 0 0 empty empty Feedback 7 8 0 10 -262144
-1 -1 7000 1;
#X obj 114 128 hsl 90 15 0 0.98 0 0 empty empty Volume 7 8 0 10 -262144
-1 -1 8900 1;
#X floatatom 209 148 4 0 999 0 - - -;
#X floatatom 209 126 4 0 999 0 - - -;
#X obj 114 178 hradio 15 1 0 5 empty empty Delay_Time 0 -8 0 10 -262144
-1 -1 4;
#X floatatom 195 177 4 0 999 0 - - -;
#X obj 317 171 nbx 5 14 -1e+37 1e+37 0 0 empty empty empty 0 -8 0 10
-262144 -1 -1 4 256;
#X obj 281 166 + 1;
#X obj 312 128 r radio_delay;
#X connect 0 0 5 0;
#X connect 1 0 4 0;
#X connect 2 0 1 0;
#X connect 2 0 16 0;
#X connect 2 0 23 0;
#X connect 3 0 32 0;
#X connect 5 0 1 1;
#X connect 5 0 10 0;
#X connect 8 0 28 0;
#X connect 10 0 16 0;
#X connect 10 0 23 0;
#X connect 11 0 27 0;
#X connect 12 0 13 0;
#X connect 14 0 15 0;
#X connect 15 0 12 1;
#X connect 16 0 12 0;
#X connect 16 0 24 0;
#X connect 18 0 32 0;
#X connect 19 0 32 0;
#X connect 20 0 32 0;
#X connect 21 0 32 0;
#X connect 22 0 32 0;
#X connect 25 0 19 0;
#X connect 25 1 20 0;
#X connect 25 2 21 0;
#X connect 25 3 22 0;
#X connect 25 4 18 0;
#X connect 27 0 29 0;
#X connect 28 0 30 0;
#X connect 29 0 10 1;
#X connect 30 0 5 1;
#X connect 30 0 10 1;
#X connect 31 0 25 0;
#X connect 32 0 14 0;
#X connect 32 0 0 0;
#X connect 33 0 31 0;
#X connect 34 0 33 0;
#X connect 35 0 34 0;
#X coords 0 -1 1 1 140 100 1 100 100;
