#N canvas 6 74 1908 976 10;
#X obj 20 343 unpack 0 0 0;
#X text 88 463 carvalhu@outlook.com.br;
#X msg 55 403 set \$1;
#X obj 25 533 outlet;
#X obj 55 423 outlet;
#X obj 102 392 outlet;
#X obj 19 271 inlet;
#X obj 126 280 inlet;
#N canvas 6 56 1908 976 GEAR-MIDI-LEARN 0;
#X obj 53 245 inlet;
#X obj 105 425 outlet;
#X obj 327 135 inlet;
#X text 362 135 Learn;
#X obj 55 372 t b a;
#X msg 55 393 1 62 0;
#X text 21 246 Load;
#X msg 356 273 set \$3 \$2 \$1;
#X msg 248 318 0 0 0;
#X msg 249 266 set \$3 \$1 \$2;
#X obj 327 155 tgl 15 0 empty empty empty 17 7 0 10 -262144 -1 -1 0
1;
#X obj 356 211 pack 0 0 0;
#X obj 356 169 ctlin, f 10;
#X obj 249 204 pack 0 0 0;
#X obj 249 162 notein, f 10;
#X obj 249 244 spigot;
#X obj 356 250 spigot;
#X msg 356 319 1 3 1;
#X msg 55 352 set \$3 \$2 \$1;
#N canvas 636 56 1278 966 note/ctl 0;
#X obj 61 20 notein, f 10;
#X obj 61 42 pack 0 0 0;
#X obj 94 84 t b a;
#X msg 94 105 1;
#X obj 61 166 spigot;
#X obj 93 147 tgl 15 0 empty empty empty 17 7 0 10 -262144 -1 -1 0
1;
#X obj 93 127 == 0;
#X text 124 127 Chanel;
#X msg 94 63 set \$3;
#X obj 61 209 t b a;
#X msg 61 230 62;
#X obj 28 291 spigot;
#X obj 61 272 tgl 15 0 empty empty empty 17 7 0 10 -262144 -1 -1 0
1;
#X obj 61 252 == 0;
#X msg 61 188 set \$1;
#X obj 28 330 t b a;
#X obj 28 372 pack 0 0 0;
#X msg 28 350 0;
#X obj 28 458 outlet;
#X text 94 373 Velo \, Note \, Chanel;
#X obj 119 165 sel 0;
#X msg 119 184 0;
#X obj 254 10 inlet;
#X msg 28 310 set \$2;
#X obj 82 294 spigot;
#X msg 82 313 set \$1;
#X text 95 253 Note;
#X obj 428 40 pack 0 0 0;
#X obj 461 82 t b a;
#X msg 461 103 1;
#X obj 428 164 spigot;
#X obj 460 145 tgl 15 0 empty empty empty 17 7 0 10 -262144 -1 -1 1
1;
#X obj 474 125 == 0;
#X text 491 125 Chanel;
#X msg 461 61 set \$3;
#X obj 428 207 t b a;
#X msg 428 228 3;
#X obj 395 289 spigot;
#X obj 428 270 tgl 15 0 empty empty empty 17 7 0 10 -262144 -1 -1 1
1;
#X obj 428 250 == 0;
#X obj 395 328 t b a;
#X obj 395 370 pack 0 0 0;
#X msg 395 348 50;
#X obj 486 163 sel 0;
#X msg 486 182 0;
#X obj 449 292 spigot;
#X msg 449 311 set \$1;
#X text 461 371 Velo \, Value \, Chanel;
#X obj 428 18 ctlin, f 10;
#X text 462 251 Value;
#X msg 428 186 set \$2;
#X msg 395 308 set \$1;
#X obj 28 436 spigot;
#X obj 61 417 tgl 15 0 empty \$0-midi-learn-toggle-r empty 17 7 0 10
-262144 -1 -1 0 1;
#X obj 269 62 t b a;
#X msg 269 81 1;
#X obj 260 207 t b a;
#X msg 260 226 3;
#X text 317 41 Chanel;
#X text 305 188 Note;
#X obj 394 458 outlet;
#X obj 394 436 spigot;
#X obj 427 417 tgl 15 0 empty \$0-midi-learn-toggle-r empty 17 7 0
10 -262144 -1 -1 1 1;
#X obj 253 318 t b a;
#X msg 253 337 1;
#X text 298 299 MODE;
#X obj 60 397 == 0;
#X obj 427 397 == 1;
#X msg 269 42 set \$1;
#X msg 260 187 set \$2;
#X msg 253 298 set \$3;
#X connect 0 0 1 0;
#X connect 0 1 1 1;
#X connect 0 2 1 2;
#X connect 1 0 8 0;
#X connect 1 0 4 0;
#X connect 1 0 11 0;
#X connect 2 0 3 0;
#X connect 2 1 3 0;
#X connect 3 0 6 0;
#X connect 3 0 16 2;
#X connect 4 0 14 0;
#X connect 5 0 4 1;
#X connect 6 0 5 0;
#X connect 6 0 20 0;
#X connect 8 0 2 0;
#X connect 9 0 10 0;
#X connect 9 1 10 0;
#X connect 10 0 13 0;
#X connect 10 0 16 1;
#X connect 11 0 23 0;
#X connect 12 0 11 1;
#X connect 12 0 24 1;
#X connect 13 0 12 0;
#X connect 14 0 9 0;
#X connect 15 0 17 0;
#X connect 15 1 17 0;
#X connect 16 0 52 0;
#X connect 17 0 16 0;
#X connect 20 0 21 0;
#X connect 21 0 12 0;
#X connect 22 0 68 0;
#X connect 22 0 69 0;
#X connect 22 0 70 0;
#X connect 23 0 15 0;
#X connect 24 0 25 0;
#X connect 25 0 15 0;
#X connect 27 0 34 0;
#X connect 27 0 30 0;
#X connect 27 0 37 0;
#X connect 28 0 29 0;
#X connect 28 1 29 0;
#X connect 29 0 32 0;
#X connect 29 0 41 2;
#X connect 30 0 50 0;
#X connect 31 0 30 1;
#X connect 32 0 31 0;
#X connect 32 0 43 0;
#X connect 34 0 28 0;
#X connect 35 0 36 0;
#X connect 35 1 36 0;
#X connect 36 0 39 0;
#X connect 36 0 41 1;
#X connect 37 0 51 0;
#X connect 38 0 37 1;
#X connect 38 0 45 1;
#X connect 39 0 38 0;
#X connect 40 0 42 0;
#X connect 40 1 42 0;
#X connect 41 0 61 0;
#X connect 42 0 41 0;
#X connect 43 0 44 0;
#X connect 44 0 38 0;
#X connect 45 0 46 0;
#X connect 46 0 40 0;
#X connect 48 0 27 0;
#X connect 48 1 27 1;
#X connect 48 2 27 2;
#X connect 50 0 35 0;
#X connect 51 0 40 0;
#X connect 52 0 18 0;
#X connect 53 0 52 1;
#X connect 54 0 55 0;
#X connect 54 1 55 0;
#X connect 55 0 6 1;
#X connect 55 0 32 1;
#X connect 56 0 57 0;
#X connect 56 1 57 0;
#X connect 57 0 13 1;
#X connect 57 0 39 1;
#X connect 61 0 60 0;
#X connect 62 0 61 1;
#X connect 63 0 64 0;
#X connect 63 1 64 0;
#X connect 64 0 67 0;
#X connect 64 0 66 0;
#X connect 66 0 53 0;
#X connect 67 0 62 0;
#X connect 68 0 54 0;
#X connect 69 0 56 0;
#X connect 70 0 63 0;
#X restore 55 332 pd note/ctl;
#X obj 143 374 t b a;
#X msg 143 395 1 3 50;
#X msg 143 353 set \$3 \$2 \$1;
#X msg 277 183 0;
#X msg 356 190 1;
#N canvas 6 56 1908 976 load-loadbang 0;
#X obj 69 159 outlet;
#X obj 70 70 loadbang;
#X obj 69 138 pack 0 0 0;
#X obj 131 114 f \$3;
#X obj 70 90 t b b b;
#X obj 100 114 f \$1;
#X obj 69 114 f \$2;
#X connect 1 0 4 0;
#X connect 2 0 0 0;
#X connect 3 0 2 2;
#X connect 4 0 6 0;
#X connect 4 1 5 0;
#X connect 4 2 3 0;
#X connect 5 0 2 1;
#X connect 6 0 2 0;
#X restore 59 288 pd load-loadbang;
#X obj 356 293 t b a;
#X obj 249 285 t b a;
#N canvas 636 56 1278 966 mensager-convert 0;
#X obj 22 23 inlet;
#X obj 114 229 outlet;
#X msg 114 203 1 3 1;
#X msg 114 119 set \$2;
#X msg 113 62 set;
#X msg 167 139 add2 1;
#X msg 34 139 add2 3;
#X msg 34 119 set add2 \$1;
#X msg 167 120 set add2 \$3;
#X obj 22 45 t b b a b;
#X obj 167 158 t b a;
#X connect 0 0 9 0;
#X connect 2 0 1 0;
#X connect 3 0 2 0;
#X connect 4 0 2 0;
#X connect 5 0 10 0;
#X connect 6 0 2 0;
#X connect 7 0 6 0;
#X connect 8 0 5 0;
#X connect 9 0 5 0;
#X connect 9 1 6 0;
#X connect 9 2 3 0;
#X connect 9 2 7 0;
#X connect 9 2 8 0;
#X connect 9 3 4 0;
#X connect 10 0 2 0;
#X connect 10 1 2 0;
#X restore 53 264 pd mensager-convert;
#X msg 438 335 set \$2 \$3 \$1;
#X obj 439 380 outlet;
#X connect 0 0 28 0;
#X connect 2 0 10 0;
#X connect 4 0 5 0;
#X connect 4 1 5 0;
#X connect 5 0 1 0;
#X connect 7 0 26 0;
#X connect 8 0 19 0;
#X connect 9 0 27 0;
#X connect 10 0 15 1;
#X connect 10 0 16 1;
#X connect 11 0 16 0;
#X connect 12 0 24 0;
#X connect 12 1 11 1;
#X connect 12 2 11 2;
#X connect 13 0 15 0;
#X connect 14 0 13 0;
#X connect 14 1 23 0;
#X connect 14 2 13 2;
#X connect 15 0 9 0;
#X connect 16 0 7 0;
#X connect 16 0 29 0;
#X connect 17 0 19 0;
#X connect 18 0 4 0;
#X connect 19 0 18 0;
#X connect 19 1 22 0;
#X connect 20 0 21 0;
#X connect 20 1 21 0;
#X connect 21 0 1 0;
#X connect 22 0 20 0;
#X connect 23 0 13 1;
#X connect 24 0 11 0;
#X connect 25 0 19 0;
#X connect 26 0 17 0;
#X connect 26 1 17 0;
#X connect 27 0 8 0;
#X connect 27 1 8 0;
#X connect 28 0 19 0;
#X connect 29 0 30 0;
#X restore 19 320 pd GEAR-MIDI-LEARN;
#X text 24 66 MODE: note/ctl (NOTE=0 | CTL=1);
#X text 84 8 ----- INLET -----;
#X text 58 114 ----- Arguments in box -----;
#X text 89 451 © Carvalho \, E 2020;
#X text 77 179 ----- OUTLET -----;
#X text 64 248 Message Learn;
#X text 162 283 Toggle Learn;
#X text 22 36 left: Toggle to learn;
#X text 23 51 right: message to learn (Note/ctrl \, Channel \, Mode)
;
#X text 19 137 Note/ctrl \, Channel \, Mode;
#X text 20 198 Velocity \, Note \, Channel;
#X obj 146 378 outlet;
#X msg 25 383 set \$1;
#X msg 89 363 \$1;
#X connect 0 0 21 0;
#X connect 0 1 2 0;
#X connect 0 2 22 0;
#X connect 2 0 4 0;
#X connect 6 0 8 0;
#X connect 7 0 8 1;
#X connect 8 0 0 0;
#X connect 8 1 20 0;
#X connect 21 0 5 0;
#X connect 22 0 3 0;
#X coords 0 976 1 975 170 80 0;
