#N canvas 0 94 450 300 10;
#X obj 246 98 pi;
#X obj 166 82 t f b;
#X obj 170 124 *;
#X obj 165 56 inlet;
#X obj 168 161 outlet;
#X msg 367 87 1;
#X obj 367 109 atan;
#X obj 367 128 * 4;
#X obj 298 154 f;
#X obj 367 63 loadbang;
#X connect 0 0 2 1;
#X connect 1 0 2 0;
#X connect 1 1 0 0;
#X connect 1 1 8 0;
#X connect 2 0 4 0;
#X connect 3 0 1 0;
#X connect 5 0 6 0;
#X connect 6 0 7 0;
#X connect 7 0 8 1;
#X connect 8 0 2 1;
#X connect 9 0 5 0;
