#N canvas 469 165 450 300 10;
#N canvas 683 94 683 674 play-image 0;
#X msg 70 235 disconnect;
#X obj 69 348 unpack 0 0 0 0;
#X floatatom 69 371 3 0 0 0 - - -, f 3;
#X floatatom 100 371 3 0 0 0 - - -, f 3;
#X floatatom 132 371 3 0 0 0 - - -, f 3;
#X floatatom 164 371 3 0 0 0 - - -, f 3;
#X text 33 371 from;
#X obj 132 325 tgl 15 0 empty empty connected 18 7 0 8 -24198 -241291
-1 0 1;
#X obj 69 422 spigot;
#X obj 108 399 tgl 15 0 empty empty enable_print 18 7 0 8 -24198 -241291
-1 0 1;
#X floatatom 464 233 3 0 0 0 - - -, f 3;
#X floatatom 518 233 3 0 0 0 - - -, f 3;
#X floatatom 491 233 3 0 0 0 - - -, f 3;
#X obj 464 154 route address;
#X obj 464 182 unpack f f f f f;
#X floatatom 545 233 3 0 0 0 - - -, f 3;
#X floatatom 573 207 6 0 0 0 - - -, f 6;
#X text 571 233 ip;
#X obj 69 451 print tcpclient:received;
#X obj 254 167 spigot;
#X obj 293 144 tgl 15 0 empty empty enable_print 18 7 0 8 -24198 -241291
-1 0 1;
#X obj 254 196 print tcpclient:status;
#X obj 174 305 s \$0.tcpclient.o4;
#X obj 254 121 r \$0.tcpclient.o4;
#X obj 464 128 r \$0.tcpclient.o4;
#X obj 94 577 f;
#X obj 134 578 + 1;
#X msg 115 547 0;
#X obj 49 670 spigot;
#X obj 94 646 tgl 15 0 empty empty empty 17 7 0 10 -262144 -1 -1 0
1;
#X obj 49 502 t a b;
#X obj 210 729 bng 15 250 50 0 empty empty empty 0 -6 0 8 -262144 -1
-1;
#X text 205 707 clear;
#X msg 49 728 250;
#X msg 81 728 500;
#X msg 114 728 750;
#X msg 147 728 1000;
#X obj 166 773 t l;
#X obj 49 767 list prepend;
#X obj 107 810 print stored;
#X text 76 703 -- add --;
#X obj 49 858 unpack f f f f f f;
#X floatatom 49 883 5 0 0 0 - - -, f 5;
#X floatatom 62 903 5 0 0 0 - - -, f 5;
#X floatatom 82 922 5 0 0 0 - - -, f 5;
#X floatatom 96 942 5 0 0 0 - - -, f 5;
#X floatatom 115 965 5 0 0 0 - - -, f 5;
#X floatatom 139 982 5 0 0 0 - - -, f 5;
#X obj 29 941 -;
#X obj 29 996 /;
#X obj 29 1029 int;
#X floatatom 29 1080 5 0 0 0 - - -, f 5;
#X obj 29 968 * -168.92;
#X obj 29 1054 + 1;
#X text 73 1082 Nbre points par ligne;
#X obj 140 668 spigot;
#X obj 187 650 tgl 15 0 empty empty empty 17 7 0 10 -262144 -1 -1 0
1;
#X obj 187 623 invert;
#X obj 489 562 f;
#X obj 529 563 + 1;
#X obj 572 563 % 3380;
#X obj 478 615 tabwrite echodatas;
#X obj 715 650 tabread echodatas;
#X floatatom 715 623 5 0 0 0 - - -, f 5;
#X floatatom 715 682 5 0 0 0 - - -, f 5;
#X obj 452 788 f;
#X msg 473 750 0;
#X obj 492 789 + 2;
#X obj 602 790 f;
#X obj 642 791 + 2;
#X msg 623 752 1;
#X obj 452 691 t b b;
#X obj 405 654 bng 15 250 50 0 empty empty empty 17 7 0 10 -262144
-1 -1;
#X floatatom 478 830 5 0 0 0 - - -, f 5;
#X floatatom 625 833 5 0 0 0 - - -, f 5;
#X obj 535 674 bng 15 250 50 0 empty empty empty 17 7 0 10 -262144
-1 -1;
#X obj 452 533 t b a b;
#X obj 677 790 % 3380;
#X obj 528 789 % 3380;
#X msg 512 750 3370;
#X msg 662 752 3371;
#X obj 452 861 tabread echodatas;
#X obj 602 861 tabread echodatas;
#X text 629 565 3379;
#X obj 94 610 < 6;
#X msg 540 480 0;
#X obj 139 1031 % 256;
#X floatatom 139 1059 5 0 0 0 - - -, f 5;
#X obj 139 1005 - 256;
#X obj 94 519 spigot;
#X obj 139 495 tgl 15 0 empty empty empty 17 7 0 10 -262144 -1 -1 1
1;
#X obj 191 495 loadbang;
#X msg 191 524 1;
#X text 273 41 connect with an IP address and port number to Red Pitaya
;
#X obj 49 103 t a b b b b;
#X obj 49 276 iemnet/tcpclient;
#X text 172 919 Décimation > /echantillonage;
#X text 150 942 Nbre lignes > lignes dans chaques images;
#X text 188 881 R0 > profondeur début mesure (mm);
#X text 173 963 Angle image > balayage moteur (°);
#X text 185 899 RF > profondeur fin mesure (mm);
#X msg 51 40 connect 192.168.128.3 7538;
#X msg 367 13 connect 172.16.10.57 7538;
#X msg 1071 412 disconnect;
#X obj 1015 536 tgl 15 0 empty empty connected 20 7 0 8 -24198 -241291
-1 0 1;
#X msg 1036 322 send 0 1 2 3;
#X text 1007 258 Used in conjunction with packOSC will send OSC over
udp;
#X msg 1039 356 99 98 97;
#X text 1105 358 'send' prefix is optional;
#X msg 956 386 \$1;
#X obj 1015 513 iemnet/udpsend;
#X floatatom 929 642 5 0 0 0 - - -, f 5;
#X floatatom 953 672 5 0 0 0 - - -, f 5;
#X floatatom 977 722 3 0 0 0 - - -, f 3;
#X floatatom 1004 722 3 0 0 0 - - -, f 3;
#X floatatom 1031 722 3 0 0 0 - - -, f 3;
#X floatatom 1058 722 3 0 0 0 - - -, f 3;
#X text 940 721 from;
#X text 845 642 connections;
#X text 883 672 on socket;
#X text 1085 612 argument is port number;
#X obj 906 773 spigot;
#X obj 945 753 tgl 15 0 empty empty enable_print 17 7 0 10 -24198 -258699
-45076 0 1;
#X text 905 816 Received messages are output as stream of bytes;
#X obj 906 796 print tcpserver:received;
#X obj 1135 771 spigot;
#X obj 1174 751 tgl 15 0 empty empty enable_print 17 7 0 10 -24198
-258699 -45076 0 1;
#X obj 1135 797 print tcpserver:status;
#X msg 1056 570 disconnect;
#X obj 1001 636 s \$0.tcpserver.o5;
#X obj 1135 726 r \$0.tcpserver.o5;
#X obj 977 699 unpack f f f f f;
#X floatatom 1086 722 6 0 0 0 - - -, f 6;
#X msg 938 551 target;
#X msg 764 564 broadcast \$1;
#X obj 907 610 iemnet/tcpserver 5555;
#X msg 1015 290 connect localhost 9999;
#X obj 692 310 iemnet/udpreceive 9997;
#X floatatom 733 366 3 0 0 0 - - -, f 3;
#X floatatom 760 366 3 0 0 0 - - -, f 3;
#X floatatom 787 366 3 0 0 0 - - -, f 3;
#X floatatom 814 366 3 0 0 0 - - -, f 3;
#X text 690 365 from;
#X obj 682 410 print message;
#X floatatom 842 366 5 0 0 0 - - -, f 5;
#X obj 733 340 unpack 0 0 0 0 0;
#X msg 60 69 connect 192.168.1.51 7538;
#X obj 280 1039 soundfiler;
#X msg 280 1010 write -aiff /tmp/foo1 array2;
#X floatatom 280 1063 0 0 0 0 - - -;
#X obj 357 1064 print;
#X msg 754 989 0;
#X obj 578 902 tgl 15 0 empty empty empty 17 7 0 10 -262144 -1 -1 0
1;
#X msg 800 931 reset;
#X msg 755 932 clear;
#X msg 590 1025 \; echodatas write /home/mitoufflon/Bureau/Tables/table\$1.txt
;
#X msg 1168 878 reset;
#X msg 1123 879 clear;
#X floatatom 1089 845 5 0 0 0 - - -, f 5;
#X obj 575 925 metro 3;
#X obj 642 974 counter 0 22064;
#X obj 1011 922 counter 0 2263;
#X obj 943 872 metro 3;
#X obj 882 847 inlet;
#X obj 988 841 inlet;
#X obj 898 905 tgl 15 0 empty empty empty 17 7 0 10 -262144 -1 -1 0
1;
#X msg 959 971 \; echodatas read ./Tables/table\$1.txt;
#X obj 1022 863 hsl 128 15 3 500 0 0 empty empty empty -2 -8 0 10 -262144
-1 -1 0 1;
#X connect 0 0 95 0;
#X connect 1 0 2 0;
#X connect 1 1 3 0;
#X connect 1 2 4 0;
#X connect 1 3 5 0;
#X connect 8 0 18 0;
#X connect 9 0 8 1;
#X connect 13 0 14 0;
#X connect 14 0 10 0;
#X connect 14 1 12 0;
#X connect 14 2 11 0;
#X connect 14 3 15 0;
#X connect 14 4 16 0;
#X connect 19 0 21 0;
#X connect 20 0 19 1;
#X connect 23 0 19 0;
#X connect 24 0 13 0;
#X connect 25 0 26 0;
#X connect 25 0 84 0;
#X connect 26 0 25 1;
#X connect 27 0 25 1;
#X connect 28 0 38 0;
#X connect 29 0 28 1;
#X connect 29 0 57 0;
#X connect 30 0 28 0;
#X connect 30 0 55 0;
#X connect 30 1 89 0;
#X connect 31 0 38 1;
#X connect 33 0 38 0;
#X connect 34 0 38 0;
#X connect 35 0 38 0;
#X connect 36 0 38 0;
#X connect 37 0 38 1;
#X connect 38 0 37 0;
#X connect 38 0 41 0;
#X connect 41 0 42 0;
#X connect 41 1 43 0;
#X connect 41 2 44 0;
#X connect 41 3 45 0;
#X connect 41 4 46 0;
#X connect 41 5 47 0;
#X connect 42 0 48 0;
#X connect 43 0 48 1;
#X connect 44 0 49 1;
#X connect 47 0 88 0;
#X connect 48 0 52 0;
#X connect 49 0 50 0;
#X connect 50 0 53 0;
#X connect 52 0 49 0;
#X connect 53 0 51 0;
#X connect 55 0 76 0;
#X connect 56 0 55 1;
#X connect 57 0 56 0;
#X connect 58 0 59 0;
#X connect 58 0 61 1;
#X connect 59 0 60 0;
#X connect 60 0 58 1;
#X connect 62 0 64 0;
#X connect 63 0 62 0;
#X connect 65 0 67 0;
#X connect 65 0 81 0;
#X connect 66 0 65 1;
#X connect 67 0 78 0;
#X connect 68 0 69 0;
#X connect 68 0 82 0;
#X connect 69 0 77 0;
#X connect 70 0 68 1;
#X connect 71 0 65 0;
#X connect 71 1 68 0;
#X connect 72 0 71 0;
#X connect 73 0 81 0;
#X connect 74 0 82 0;
#X connect 75 0 66 0;
#X connect 75 0 70 0;
#X connect 76 0 71 0;
#X connect 76 1 61 0;
#X connect 76 2 58 0;
#X connect 77 0 68 1;
#X connect 78 0 65 1;
#X connect 79 0 65 1;
#X connect 80 0 68 1;
#X connect 84 0 29 0;
#X connect 84 0 90 0;
#X connect 85 0 58 1;
#X connect 86 0 87 0;
#X connect 88 0 86 0;
#X connect 89 0 25 0;
#X connect 90 0 89 1;
#X connect 91 0 92 0;
#X connect 92 0 90 0;
#X connect 94 0 95 0;
#X connect 94 1 27 0;
#X connect 94 2 31 0;
#X connect 94 3 75 0;
#X connect 94 4 85 0;
#X connect 95 0 8 0;
#X connect 95 0 30 0;
#X connect 95 1 1 0;
#X connect 95 2 7 0;
#X connect 95 3 22 0;
#X connect 101 0 94 0;
#X connect 102 0 94 0;
#X connect 103 0 110 0;
#X connect 105 0 110 0;
#X connect 107 0 110 0;
#X connect 109 0 110 0;
#X connect 110 0 104 0;
#X connect 121 0 124 0;
#X connect 122 0 121 1;
#X connect 125 0 127 0;
#X connect 126 0 125 1;
#X connect 128 0 135 0;
#X connect 130 0 125 0;
#X connect 131 0 113 0;
#X connect 131 1 114 0;
#X connect 131 2 115 0;
#X connect 131 3 116 0;
#X connect 131 4 132 0;
#X connect 133 0 135 0;
#X connect 134 0 135 0;
#X connect 135 0 121 0;
#X connect 135 1 111 0;
#X connect 135 2 112 0;
#X connect 135 3 131 0;
#X connect 135 4 129 0;
#X connect 136 0 110 0;
#X connect 137 1 145 0;
#X connect 145 0 138 0;
#X connect 145 1 139 0;
#X connect 145 2 140 0;
#X connect 145 3 141 0;
#X connect 145 4 144 0;
#X connect 146 0 94 0;
#X connect 147 0 149 0;
#X connect 147 1 150 0;
#X connect 148 0 147 0;
#X connect 151 0 152 0;
#X connect 152 0 159 0;
#X connect 153 0 160 0;
#X connect 156 0 161 0;
#X connect 159 0 160 0;
#X connect 160 0 155 0;
#X connect 160 1 151 0;
#X connect 161 0 166 0;
#X connect 161 1 156 0;
#X connect 162 0 161 0;
#X connect 163 0 162 0;
#X connect 164 0 162 1;
#X connect 165 0 162 0;
#X connect 167 0 162 1;
#X restore 44 49 pd play-image;
#X obj 44 22 tgl 20 0 empty empty play 22 7 0 12 -258113 -1 -1 0 1
;
#X obj 122 23 hsl 128 19 0 1000 0 0 empty empty vitesse-lecture -2
-8 0 10 -203904 -1 -1 0 1;
#X connect 1 0 0 0;
#X connect 2 0 0 1;
