#N canvas 730 61 1155 936 12;
#X floatatom 151 176 3 0 0 0 - - -, f 3;
#X floatatom 178 176 3 0 0 0 - - -, f 3;
#X floatatom 205 176 3 0 0 0 - - -, f 3;
#X floatatom 232 176 3 0 0 0 - - -, f 3;
#X floatatom 259 177 5 0 0 0 - - -, f 5;
#X obj 151 150 unpack 0 0 0 0 0;
#X msg -72 -38 status;
#X floatatom 30 97 9 0 0 0 - - -, f 9;
#X obj 211 123 tgl 15 0 empty empty empty 17 7 0 10 #00fc04 #000000
#000000 0 1;
#X floatatom 90 123 9 0 0 0 - - -, f 9;
#X text -273 -38 get status on right outlet:;
#X text -77 97 bytes received:;
#X text -62 121 total bytes received:;
#X text 108 175 from:;
#X text 30 -50 Specify a multicast address (from 224.0.0.0 to 239.255.255.255)
to use multicasting;
#X text -227 -90 Creation arguments: port number to listen on (required)
;
#X obj -72 166 spigot;
#X obj -33 146 tgl 15 0 empty empty enable_print: -77 8 0 10 #00fc04
#000000 #000000 0 1;
#X obj -72 191 print received;
#X obj 30 64 route received total from multicast;
#X text -88 -72 IP address to listen on (optional);
#X text 13 -1 change port to listen on;
#X text -275 -125 [udpreceive] receives datagrams over a udp connection
and outputs them as raw bytes.;
#X msg -195 -1 port 7600;
#X obj -112 429 list length;
#X floatatom -113 500 5 0 0 0 - - -, f 5;
#X floatatom 108 149 5 0 0 0 - - -, f 5;
#X obj -109 233 list split 1;
#X obj -24 483 * 256;
#X obj 25 509 +;
#X obj -68 260 list split 1;
#X msg 601 262 disconnect;
#X obj 529 344 tgl 15 0 empty empty connected 20 7 0 8 #14e814 #e8e828
#000000 0 1;
#X msg 550 130 send 0 1 2 3;
#X msg 567 211 \$1;
#X floatatom 564 188 5 0 0 0 - - -, f 5;
#X obj 501 -58 shell;
#X obj 534 -23 print DONE;
#X obj 500 10 print STDOUT;
#X obj 435 -24 unpack f;
#X floatatom 435 2 5 0 0 0 - - -, f 5;
#X msg -61 1 port \$1;
#X obj 409 27 f;
#X msg -190 66 port 7539;
#X obj -24 431 repack 2;
#X obj -24 456 unpack f f;
#X obj -11 566 - 32768;
#X obj -11 589 / 32768;
#X obj 21 692 array set echodatas;
#X obj -11 614 repack 16384;
#X obj -113 463 change;
#X obj -62 562 / 2;
#X msg 483 45 connect 192.168.2.108 7600;
#X obj 223 838 f;
#X obj 257 837 + 1;
#X obj -11 648 t b l;
#X obj 265 788 tgl 15 0 empty empty empty 17 7 0 10 #fcfcfc #000000
#000000 0 1;
#X floatatom 223 868 5 0 0 0 - - -, f 5;
#X obj 223 812 spigot;
#X msg 311 790 0;
#X msg 501 -118 netstat -lapunteu |grep 7600 |grep pd|cut -c35-;
#X msg -195 34 port 48627;
#X msg 184 897 \; echodatas write Tables3/table\$1.txt;
#X obj 705 -86 inlet;
#X msg 705 3 connect \$1 7600;
#X obj 601 5 print adresse;
#X obj 705 -25 makesymbol %s;
#X msg 740 -61 list 192.168.1.2;
#X obj 727 66 delay 10;
#X obj 746 93 delay 20;
#X obj 705 36 t a b b b b b;
#X obj 773 121 delay 30;
#X obj -21 300 t a a;
#X obj 799 148 delay 40;
#X obj 528 321 mrpeach/udpsend;
#X obj -72 32 mrpeach/udpreceive 7560;
#X connect 5 0 0 0;
#X connect 5 1 1 0;
#X connect 5 2 2 0;
#X connect 5 3 3 0;
#X connect 5 4 4 0;
#X connect 6 0 75 0;
#X connect 16 0 18 0;
#X connect 17 0 16 1;
#X connect 19 0 7 0;
#X connect 19 1 9 0;
#X connect 19 2 5 0;
#X connect 19 3 8 0;
#X connect 23 0 75 0;
#X connect 24 0 50 0;
#X connect 25 0 51 0;
#X connect 27 0 26 0;
#X connect 27 1 30 0;
#X connect 28 0 29 0;
#X connect 29 0 46 0;
#X connect 30 1 72 0;
#X connect 31 0 74 0;
#X connect 33 0 74 0;
#X connect 34 0 74 0;
#X connect 35 0 34 0;
#X connect 36 0 38 0;
#X connect 36 0 39 0;
#X connect 36 1 37 0;
#X connect 39 0 40 0;
#X connect 40 0 42 1;
#X connect 41 0 75 0;
#X connect 42 0 41 0;
#X connect 43 0 75 0;
#X connect 44 0 45 0;
#X connect 45 0 28 0;
#X connect 45 1 29 1;
#X connect 46 0 47 0;
#X connect 47 0 49 0;
#X connect 49 0 55 0;
#X connect 50 0 25 0;
#X connect 51 0 49 1;
#X connect 52 0 74 0;
#X connect 53 0 54 0;
#X connect 53 0 57 0;
#X connect 53 0 62 0;
#X connect 54 0 53 1;
#X connect 55 0 58 0;
#X connect 55 1 48 0;
#X connect 56 0 58 1;
#X connect 58 0 53 0;
#X connect 59 0 53 1;
#X connect 60 0 36 0;
#X connect 61 0 75 0;
#X connect 63 0 66 0;
#X connect 64 0 65 0;
#X connect 64 0 70 0;
#X connect 66 0 64 0;
#X connect 67 0 66 0;
#X connect 68 0 33 0;
#X connect 69 0 60 0;
#X connect 70 0 74 0;
#X connect 70 1 68 0;
#X connect 70 2 69 0;
#X connect 70 3 71 0;
#X connect 70 4 73 0;
#X connect 71 0 31 0;
#X connect 72 0 44 0;
#X connect 72 1 24 0;
#X connect 73 0 42 0;
#X connect 74 0 32 0;
#X connect 75 0 16 0;
#X connect 75 0 27 0;
#X connect 75 1 19 0;
#X coords 0 -1 1 1 200 100 1 100 100;
